<?xml version="1.0" encoding="UTF-8"?>
<svg xmlns="http://www.w3.org/2000/svg" version="1.1" viewBox="0 0 283.46 283.46">
  <defs>
    <style>
      .cls-1 {
        fill: #fff;
      }

      .cls-2 {
        fill: #08021c;
      }
    </style>
  </defs>
  <!-- Generator: Adobe Illustrator 28.6.0, SVG Export Plug-In . SVG Version: 1.1.0 Build 552)  -->
  <g>
    <g id="Layer_1">
      <rect class="cls-1" x="60.5" y="60.23" width="142" height="143"/>
      <g>
        <path class="cls-2" d="M222.96,60.7v-20.78H40.2v183.31h20.3v20.31h182.76V60.7h-20.3ZM202.65,60.7v142.22H60.51V60.23h142.14v.47Z"/>
        <polygon class="cls-2" points="101.12 142.62 121.12 142.62 121.12 162.62 121.12 182.93 141.43 182.93 141.43 162.62 141.43 142.62 141.73 142.62 161.42 142.62 161.73 142.62 181.73 142.62 181.73 122.31 161.73 122.31 161.42 122.31 141.73 122.31 141.42 122.31 141.42 122.01 141.42 102.32 141.42 102.01 141.42 82.01 121.11 82.01 121.11 102.01 121.11 102.32 121.11 122.01 121.11 122.31 101.12 122.31 101.12 122.31 80.81 122.31 80.81 142.62 101.12 142.62 101.12 142.62"/>
      </g>
    </g>
  </g>
</svg>