<?xml version="1.0" encoding="UTF-8"?>
<svg id="Layer_1" data-name="Layer 1" xmlns="http://www.w3.org/2000/svg" version="1.1" viewBox="0 0 283.5 283.5">
  <defs>
    <style>
      .cls-1 {
        fill: #08021c;
      }

      .cls-1, .cls-2 {
        stroke-width: 0px;
      }

      .cls-2 {
        fill: #fff;
      }
    </style>
  </defs>
  <polygon class="cls-1" points="203.5 172 203.5 152.2 182.7 152.2 182.7 132.7 203.5 132.7 203.5 73 182.7 73 182.7 72.7 182.7 52.6 163.8 52.6 161.9 52.6 161.9 32.5 99.1 32.5 99.1 52.6 78.3 52.6 78.3 112.9 99.1 112.9 99.1 132.4 78.3 132.4 78.3 152.2 57.5 152.2 57.5 172 36.5 172 36.5 211.9 57.3 211.9 57.3 231.7 78.1 231.7 78.1 251.5 245.5 251.5 245.5 172 203.5 172"/>
  <rect class="cls-2" x="99.4" y="52.6" width="62.1" height="60.1"/>
  <polygon class="cls-2" points="182.3 172.3 182.3 152.5 161.6 152.5 161.6 132.7 99.4 132.7 99.4 152.5 78.6 152.5 78.6 172.3 57.6 172.3 57.6 211.6 203.4 211.6 203.4 172.3 182.3 172.3"/>
</svg>