<?xml version="1.0" encoding="UTF-8"?><svg id="Layer_1" xmlns="http://www.w3.org/2000/svg" viewBox="0 0 223.62 223.49"><defs><style>.cls-1{fill:#08021c;}.cls-1,.cls-2{stroke-width:0px;}.cls-2{fill:#fff;}</style></defs><g id="Layer_1-2"><g id="Layer_1-2"><path class="cls-1" d="M203.32,162.36v-20.17h-20.62V60.19h-19.98v-20.16h-20.62v-19.86h-19.67V0H40.28v20.17h-20.3v20.86H0v81.61h19.98v19.86h19.68v20.17h41.22v20.17h60.91v20.17h20.3v20.48h61.53v-61.13h-20.3Z"/></g></g><rect class="cls-2" x="142.11" y="142.5" width="19.98" height="19.86"/><rect class="cls-2" x="162.4" y="162.67" width="19.99" height="19.86"/><path class="cls-2" d="M121.47,40.65v-20.17l-80.87-.3v20.85h-19.98v80.99h19.98v20.17h80.89v-20.17h20.29V40.65h-20.31ZM121.58,101.16h-20.08v21.17h-41.23v-21.18h-19.67v-40.96h19.98v-19.85h41.23v19.85h0s19.77.01,19.77.01v40.96Z"/></svg>