<svg width="24" height="24" viewBox="0 0 24 24" fill="none" xmlns="http://www.w3.org/2000/svg">
<path d="M6.4443 3.6853C8.08879 2.58649 10.0222 2 12 2C14.6513 2.00295 17.1931 3.05746 19.0678 4.93219C20.9425 6.80691 21.9971 9.34874 22 12C22 13.9778 21.4135 15.9112 20.3147 17.5557C19.2159 19.2002 17.6541 20.4819 15.8268 21.2388C13.9996 21.9957 11.9889 22.1937 10.0491 21.8079C8.10929 21.422 6.32746 20.4696 4.92894 19.0711C3.53041 17.6725 2.578 15.8907 2.19215 13.9509C1.8063 12.0111 2.00433 10.0004 2.76121 8.17317C3.51809 6.3459 4.79981 4.78412 6.4443 3.6853Z" fill="url(#paint0_linear_3_248)"/>
<path fill-rule="evenodd" clip-rule="evenodd" d="M12.2932 16.2914C12.1057 16.4791 12.0003 16.7337 12.0002 16.9992C12.0003 17.1971 12.0589 17.3906 12.1688 17.5552C12.2787 17.7198 12.4349 17.8481 12.6176 17.9238C12.8003 17.9996 13.0013 18.0194 13.1952 17.9808C13.3892 17.9422 13.5674 17.8469 13.7072 17.7069L18.608 12.801C18.6427 12.7744 18.6759 12.7454 18.7071 12.7141C18.8946 12.5263 19 12.2717 19 12.0062C19 12.0042 19 12.0021 19 12.0001C19 11.998 19 11.996 19 11.994C19 11.7285 18.8947 11.4739 18.7072 11.2862L13.7072 6.281C13.5186 6.09866 13.266 5.99776 13.0038 6.00004C12.7416 6.00232 12.4908 6.1076 12.3054 6.2932C12.12 6.4788 12.0148 6.72987 12.0125 6.99234C12.0103 7.25481 12.1111 7.50768 12.2932 7.69648L15.5985 11.0052L6 11.0052C5.73478 11.0052 5.48043 11.1107 5.29289 11.2984C5.10536 11.4861 5 11.7407 5 12.0062C5 12.2717 5.10536 12.5263 5.29289 12.7141C5.48043 12.9018 5.73478 13.0073 6 13.0073L15.574 13.0073L12.2932 16.2914Z" fill="#060117"/>
<defs>
<linearGradient id="paint0_linear_3_248" x1="2" y1="2" x2="22" y2="22" gradientUnits="userSpaceOnUse">
<stop stop-color="#01FEA8"/>
<stop offset="1" stop-color="#74BBFF"/>
</linearGradient>
</defs>
</svg>
