<svg width="20" height="20" viewBox="0 0 20 20" fill="none" xmlns="http://www.w3.org/2000/svg">
<g clip-path="url(#clip0_1_2862)">
<path d="M2.03099 4.04254L3.99999 4.00478V1.987H11.969V4.00478L13.969 3.98491L14 11.9825L15.969 14.0083L20 17.9822H15.969L11.969 14.0083L3.99999 14.0391V12.0213H1.96899L2.03099 4.04254Z" fill="#5D4B97"/>
<path d="M10.031 3.97397H8V5.99175H10.031V3.97397Z" fill="#08021C"/>
<path d="M7.99999 3.97397H5.96899V5.99175H7.99999V3.97397Z" fill="#08021C"/>
<path d="M4 7.94694V9.96472H11.978V7.94694H4Z" fill="#08021C"/>
<path d="M4 5.93015V7.94794L11.978 7.94794V5.93015H4Z" fill="#08021C"/>
<path d="M9.89999 7.94795V9.96573H11.931V7.94795H9.89999Z" fill="#08021C"/>
<path d="M9.89999 5.93015V7.94794H11.931V5.93015H9.89999Z" fill="#08021C"/>
<path d="M7.969 11.9527H10V9.93491H7.969V11.9527Z" fill="#08021C"/>
<path d="M5.93799 11.9527H7.96899V9.93491H5.93799V11.9527Z" fill="#08021C"/>
<path d="M10.031 0H8V2.01778H10.031V0Z" fill="#08021C"/>
<path d="M7.99999 0H5.96899V2.01778H7.99999V0Z" fill="#08021C"/>
<path d="M12.062 0H10.031V2.01778H12.062V0Z" fill="#08021C"/>
<path d="M5.99999 0H3.96899V2.01778H5.99999V0Z" fill="#08021C"/>
<path d="M3.99999 1.987H1.96899V4.00478H3.99999V1.987Z" fill="#08021C"/>
<path d="M14 1.987H11.969V4.00478H14V1.987Z" fill="#08021C"/>
<path d="M0 6.06031L0 8.07809H2.031V6.06031H0Z" fill="#08021C"/>
<path d="M0 8.0771L0 10.0949H2.031V8.0771H0Z" fill="#08021C"/>
<path d="M0 4.04252L0 6.0603H2.031V4.04252H0Z" fill="#08021C"/>
<path d="M14 5.96095V7.97873H16.031V5.96095H14Z" fill="#08021C"/>
<path d="M14 7.97776V9.99554H16.031V7.97776H14Z" fill="#08021C"/>
<path d="M14 3.94318V5.96097H16.031V3.94318H14Z" fill="#08021C"/>
<path d="M5.93799 12.0521H7.96899V10.0343H5.93799V12.0521Z" fill="#08021C"/>
<path d="M7.969 12.0521H10V10.0343H7.969V12.0521Z" fill="#08021C"/>
<path d="M0 10.0641L0 12.0819H2.031V10.0641H0Z" fill="#08021C"/>
<path d="M14 9.96473V11.9825H16.031V9.96473H14Z" fill="#08021C"/>
<path d="M5.93799 16.026H7.96899V14.0082H5.93799V16.026Z" fill="#08021C"/>
<path d="M7.969 16.026H10V14.0082H7.969V16.026Z" fill="#08021C"/>
<path d="M3.908 16.026H5.939V14.0082H3.908L3.908 16.026Z" fill="#08021C"/>
<path d="M9.969 16.026H12V14.0082H9.969V16.026Z" fill="#08021C"/>
<path d="M11.969 14.039H14V12.0212H11.969V14.039Z" fill="#08021C"/>
<path d="M1.969 14.039H4V12.0212H1.969L1.969 14.039Z" fill="#08021C"/>
<path d="M13.969 14.039H16V3.98588H13.969L13.969 14.039Z" fill="#08021C"/>
<path d="M15.969 16.026H18V14.0082H15.969V16.026Z" fill="#08021C"/>
<path d="M17.969 18.013H20V15.9952H17.969V18.013Z" fill="#08021C"/>
<path d="M11.969 16.026H14V14.0082H11.969V16.026Z" fill="#08021C"/>
<path d="M13.969 18.013H16V15.9952H13.969V18.013Z" fill="#08021C"/>
<path d="M15.969 20H18V17.9822H15.969V20Z" fill="#08021C"/>
<path d="M17.969 20H20V17.9822H17.969V20Z" fill="#08021C"/>
</g>
<defs>
<clipPath id="clip0_1_2862">
<rect width="20" height="20" fill="white"/>
</clipPath>
</defs>
</svg>
