<svg width="23" height="24" viewBox="0 0 23 24" fill="none" xmlns="http://www.w3.org/2000/svg">
<g clip-path="url(#clip0_23_290)">
<path d="M18.3841 2.39404H2.29944V19.2498H18.3841V2.39404Z" fill="#8125FF"/>
<path d="M20.7006 19.2133H18.4V21.6072H20.7006V19.2133Z" fill="#08021C"/>
<path d="M20.7006 16.8192H18.4V19.2132H20.7006V16.8192Z" fill="#08021C"/>
<path d="M18.4012 19.2133H16.1006V21.6072H18.4012V19.2133Z" fill="#08021C"/>
<path d="M20.7006 14.4264H18.4V17.5995H20.7006V14.4264Z" fill="#08021C"/>
<path d="M20.7006 12.0325H18.4V14.4265H20.7006V12.0325Z" fill="#08021C"/>
<path d="M20.7006 9.63965H18.4V12.0336H20.7006V9.63965Z" fill="#08021C"/>
<path d="M20.7006 1.21521H18.4V9.63955H20.7006V1.21521Z" fill="#08021C"/>
<path d="M23.0011 5.93018H20.7006V12.0336H23.0011V5.93018Z" fill="#08021C"/>
<path d="M-2.93255e-05 21.6072H2.30054L2.30054 19.2132H-2.93255e-05L-2.93255e-05 21.6072Z" fill="#08021C"/>
<path d="M-2.93255e-05 19.2133H2.30054L2.30054 16.8193H-2.93255e-05L-2.93255e-05 19.2133Z" fill="#08021C"/>
<path d="M2.29941 21.6072H4.59998V19.2132H2.29941L2.29941 21.6072Z" fill="#08021C"/>
<path d="M-2.93255e-05 16.8192H2.30054L2.30054 14.4252H-2.93255e-05L-2.93255e-05 16.8192Z" fill="#08021C"/>
<path d="M-2.93255e-05 14.4264H2.30054L2.30054 12.0324H-2.93255e-05L-2.93255e-05 14.4264Z" fill="#08021C"/>
<path d="M-2.93255e-05 12.0325H2.30054L2.30054 9.63848H-2.93255e-05L-2.93255e-05 12.0325Z" fill="#08021C"/>
<path d="M-2.93255e-05 9.63965H2.30054L2.30054 7.24566H-2.93255e-05L-2.93255e-05 9.63965Z" fill="#08021C"/>
<path d="M16.1006 19.2133H13.8V21.6072H16.1006V19.2133Z" fill="#08021C"/>
<path d="M13.8011 19.2133H11.5005V21.6072H13.8011V19.2133Z" fill="#08021C"/>
<path d="M11.5006 19.2133H9.20001V21.6072H11.5006V19.2133Z" fill="#08021C"/>
<path d="M9.20114 19.2133H6.90057V21.6072H9.20114V19.2133Z" fill="#08021C"/>
<path d="M6.90054 19.2133H4.59998V21.6072H6.90054V19.2133Z" fill="#08021C"/>
<path d="M4.6011 19.2133H2.30054V21.6072H4.6011V19.2133Z" fill="#08021C"/>
<path d="M11.4666 14.4618H9.16602V16.8558H11.4666V14.4618Z" fill="#08021C"/>
<path d="M11.4666 12.069H9.16602V14.463H11.4666V12.069Z" fill="#08021C"/>
<path d="M11.4666 12.0701V9.67615H9.16605V12.0701H11.4666Z" fill="#08021C"/>
<path d="M23.0011 19.2133H20.7006V21.6072H23.0011V19.2133Z" fill="#08021C"/>
<path d="M23.0011 16.8192H20.7006V19.2132H23.0011V16.8192Z" fill="#08021C"/>
<path d="M23.0011 14.4264H20.7006V17.3638H23.0011V14.4264Z" fill="#08021C"/>
<path d="M23.0011 12.0325H20.7006V14.4265H23.0011V12.0325Z" fill="#08021C"/>
<path d="M20.7006 21.6072H18.4V24.0012H20.7006V21.6072Z" fill="#08021C"/>
<path d="M18.4012 21.6072H16.1006V24.0012H18.4012V21.6072Z" fill="#08021C"/>
<path d="M2.29941 24H4.59998V21.606H2.29941L2.29941 24Z" fill="#08021C"/>
<path d="M16.1006 21.6072H13.8V24.0012H16.1006V21.6072Z" fill="#08021C"/>
<path d="M13.8011 21.6072H11.5005V24.0012H13.8011V21.6072Z" fill="#08021C"/>
<path d="M11.5006 21.6072H9.20001V24.0012H11.5006V21.6072Z" fill="#08021C"/>
<path d="M9.20114 21.6072H6.90057V24.0012H9.20114V21.6072Z" fill="#08021C"/>
<path d="M6.90054 21.6072H4.59998V24.0012H6.90054V21.6072Z" fill="#08021C"/>
<path d="M4.6011 21.6072H2.30054V24.0012H4.6011V21.6072Z" fill="#08021C"/>
<path d="M23.0011 21.6072H20.7006V24.0012H23.0011V21.6072Z" fill="#08021C"/>
<path d="M-2.93255e-05 7.23621H2.30054L2.30054 4.84222H-2.93255e-05L-2.93255e-05 7.23621Z" fill="#08021C"/>
<path d="M-2.93255e-05 7.69824H2.30054L2.30054 0.390154H-2.93255e-05L-2.93255e-05 7.69824Z" fill="#08021C"/>
<path d="M20.7006 4.84216H18.4V7.23615H20.7006V4.84216Z" fill="#08021C"/>
<path d="M20.7006 2.44934H18.4V4.84333H20.7006V2.44934Z" fill="#08021C"/>
<path d="M20.7006 0H18.4V2.39399H20.7006V0Z" fill="#08021C"/>
<path d="M18.4012 0H16.1006V2.39399H18.4012V0Z" fill="#08021C"/>
<path d="M-2.93255e-05 2.39404L2.30054 2.39404L2.30054 5.45979e-05L-2.93255e-05 5.45979e-05L-2.93255e-05 2.39404Z" fill="#08021C"/>
<path d="M16.1006 0H13.8V2.39399H16.1006V0Z" fill="#08021C"/>
<path d="M13.8011 0H11.5005V2.39399H13.8011V0Z" fill="#08021C"/>
<path d="M11.5006 0H9.20001V2.39399H11.5006V0Z" fill="#08021C"/>
<path d="M9.20114 0H6.90057V2.39399H9.20114V0Z" fill="#08021C"/>
<path d="M6.90054 0H4.59998V2.39399H6.90054V0Z" fill="#08021C"/>
<path d="M4.6011 0H2.30054V2.39399H4.6011V0Z" fill="#08021C"/>
<path d="M23.0011 2.44934H20.7006V4.84333H23.0011V2.44934Z" fill="#08021C"/>
<path d="M23.0011 7.23621H20.7006V9.63019H23.0011V7.23621Z" fill="#08021C"/>
<path d="M23.0011 4.84216H20.7006V7.23615H23.0011V4.84216Z" fill="#08021C"/>
<path d="M11.4666 9.71271V7.31873H9.16605V9.71271H11.4666Z" fill="#08021C"/>
<path d="M11.4666 7.35529V4.9613H9.16605V7.35529H11.4666Z" fill="#08021C"/>
<path d="M6.90057 12.1055V9.71155H4.60001V12.1055H6.90057Z" fill="#08021C"/>
<path d="M9.20001 12.1055V9.71155H6.89945V12.1055H9.20001Z" fill="#08021C"/>
<path d="M9.19998 12.1044H11.5005V9.71038H9.19998V12.1044Z" fill="#08021C"/>
<path d="M11.4654 12.1044H13.766V9.71038H11.4654V12.1044Z" fill="#08021C"/>
<path d="M13.7309 12.1044H16.0315V9.71038H13.7309V12.1044Z" fill="#08021C"/>
</g>
<defs>
<clipPath id="clip0_23_290">
<rect width="23" height="24" fill="white"/>
</clipPath>
</defs>
</svg>
