<?xml version="1.0" encoding="UTF-8"?>
<svg xmlns="http://www.w3.org/2000/svg" version="1.1" viewBox="0 0 283.46 283.46">
  <defs>
    <style>
      .cls-1 {
        fill: #fff;
      }

      .cls-2 {
        fill: #08021c;
      }
    </style>
  </defs>
  <!-- Generator: Adobe Illustrator 28.6.0, SVG Export Plug-In . SVG Version: 1.1.0 Build 552)  -->
  <g>
    <g id="Layer_1">
      <rect class="cls-1" x="29.92" y="60.77" width="203" height="141.56"/>
      <g>
        <polygon class="cls-2" points="30.29 60.76 232.92 60.77 232.92 40.46 30.28 40.45 30.28 60.76 9.98 60.76 9.98 81.06 9.98 202.39 30.29 202.39 30.29 60.76"/>
        <polygon class="cls-2" points="253.35 82.08 253.35 81.07 253.35 60.76 233.04 60.76 233.04 202.39 30.29 202.39 30.29 222.7 50.59 222.7 50.59 243 50.59 243.01 252.92 243.01 252.92 223.29 273.04 223.29 273.04 222.7 273.65 222.7 273.65 82.08 253.35 82.08"/>
        <polygon class="cls-2" points="67.29 101.52 87.45 101.52 108.14 101.52 108.14 81.21 46.98 81.06 46.89 88.32 46.98 182.09 107.92 182.09 107.92 181.52 108.14 181.52 108.14 122.22 76.83 122.22 76.83 142.53 87.83 142.53 87.83 161.21 87.45 161.21 67.2 161.21 67.29 101.52"/>
        <polygon class="cls-2" points="141.29 81.06 120.98 81.06 120.89 181.33 120.98 181.33 120.98 182.09 141.29 182.09 141.29 81.06"/>
        <polygon class="cls-2" points="174.29 101.52 215.14 101.52 215.14 81.21 174.29 81.21 153.98 81.06 153.89 182.33 174.2 182.33 174.2 182.09 174.29 182.09 174.2 141.52 215.14 141.52 215.14 121.21 174.29 121.21 174.29 121.17 174.29 101.52"/>
      </g>
    </g>
  </g>
</svg>