<?xml version="1.0" encoding="UTF-8"?>
<svg xmlns="http://www.w3.org/2000/svg" version="1.1" viewBox="0 0 283.46 283.46">
  <defs>
    <style>
      .cls-1 {
        fill: #08021c;
      }
    </style>
  </defs>
  <!-- Generator: Adobe Illustrator 28.6.0, SVG Export Plug-In . SVG Version: 1.1.0 Build 552)  -->
  <g>
    <g id="Layer_1">
      <path class="cls-1" d="M243.92,81.88v-20.3h-20.3v-20.31h-81.23v20.3h-20.85s-.47.01-.47.01v-20.31H39.84v20.3h-20.3v80.62h20v20h21.01v20h20v20h19.99v20h20.31l.06-.04v20.04h42.01v-20h20v-20h20v-20h21v-20h20v-20h20v-60.31h-20ZM120.91,202.25l-.06-.06h.06v.06ZM223.61,121.88h-20v20h-20.69v20h-20v20h-20v20h-.31v.11h-21.69v-20.11h-20v-20h-20.07v-20h-21v-20h-20v-40h20.3v-20.3h40.61v20.31h20.31v20.3h.47s.54,0,.54,0h20.31v-20.31h-.47s.47,0,.47,0h20.31v-20.3h40.61v20.31h20.3v39.99Z"/>
    </g>
  </g>
</svg>