<?xml version="1.0" encoding="UTF-8"?>
<svg xmlns="http://www.w3.org/2000/svg" version="1.1" viewBox="0 0 283.46 283.46">
  <defs>
    <style>
      .cls-1 {
        fill: #fff;
      }

      .cls-2 {
        fill: #08021c;
      }
    </style>
  </defs>
  <!-- Generator: Adobe Illustrator 28.6.0, SVG Export Plug-In . SVG Version: 1.1.0 Build 552)  -->
  <g>
    <g id="Layer_1">
      <rect class="cls-1" x="40.24" y="60.76" width="184.63" height="142.57"/>
      <g id="Layer_1-2" data-name="Layer_1">
        <g>
          <polygon class="cls-2" points="243.3 82.08 243.3 81.07 243.3 60.76 223 60.76 223 40.46 40.24 40.45 40.24 60.76 19.94 60.76 19.94 202.39 40.25 202.39 40.16 141.48 40.25 141.48 40.25 141.37 60.47 141.37 60.47 121.07 80.77 121.07 80.77 100.76 60.46 100.76 60.46 121.06 40.25 121.06 40.25 60.76 222.99 60.77 222.99 161.78 222.99 161.79 222.99 162.37 202.08 162.37 202.08 142.07 181.77 142.07 181.77 162.38 202.08 162.38 202.08 182.68 222.38 182.68 222.38 202.39 162.08 202.39 162 202.39 162 181.98 141.69 181.98 141.69 162.37 161.47 162.37 161.47 142.07 181.77 142.07 181.77 121.76 161.46 121.76 161.46 142.06 141.16 142.06 141.16 161.68 121.39 161.68 121.39 141.37 101.08 141.37 101.08 121.07 80.77 121.07 80.77 141.38 101.08 141.38 101.08 161.68 121.38 161.68 121.38 181.99 141.69 181.99 141.69 202.39 40.25 202.39 40.25 243.01 243.3 243.01 243.3 223.29 263 223.29 263 222.7 263.61 222.7 263.61 202.4 263.61 82.08 243.3 82.08"/>
          <rect class="cls-2" x="182.08" y="85.37" width="20.31" height="20.31"/>
        </g>
      </g>
    </g>
  </g>
</svg>