<?xml version="1.0" encoding="UTF-8"?>
<svg xmlns="http://www.w3.org/2000/svg" version="1.1" viewBox="0 0 283.46 283.46">
  <defs>
    <style>
      .cls-1 {
        fill: #fff;
      }

      .cls-2 {
        fill: #08021c;
      }
    </style>
  </defs>
  <!-- Generator: Adobe Illustrator 28.6.0, SVG Export Plug-In . SVG Version: 1.1.0 Build 552)  -->
  <g>
    <g id="Layer_1">
      <g id="Layer_1-2" data-name="Layer_1">
        <polygon class="cls-1" points="40.2 212.58 40.2 50.95 222.95 50.95 222.95 173.27 80.81 173.27 80.81 192.88 60.51 192.88 60.51 232.88 40.2 212.58"/>
        <g>
          <path class="cls-2" d="M243.26,50.97h0v-20.7l-223.37.37v202.24h20.31v20.31h40.61v-20h20.01v-20l162.75.08V50.97h-20.31ZM40.2,212.57v-40.6h0v-60.41h0v-20.3h0v-40.31h182.75v47.05h0v53.66h0v20.92H80.81v19.99h-20.31v20.01h-20.3Z"/>
          <rect class="cls-2" x="80.89" y="111.56" width="20.31" height="20.31"/>
          <rect class="cls-2" x="121.89" y="111.56" width="20.31" height="20.31"/>
          <rect class="cls-2" x="161.89" y="111.56" width="20.31" height="20.31"/>
        </g>
      </g>
    </g>
  </g>
</svg>