<?xml version="1.0" encoding="UTF-8"?>
<svg xmlns="http://www.w3.org/2000/svg" version="1.1" viewBox="0 0 283.46 283.46">
  <defs>
    <style>
      .cls-1 {
        fill: #fff;
      }

      .cls-2 {
        fill: #08021c;
      }
    </style>
  </defs>
  <!-- Generator: Adobe Illustrator 28.6.0, SVG Export Plug-In . SVG Version: 1.1.0 Build 552)  -->
  <g>
    <g id="Layer_1">
      <g id="Layer_1-2" data-name="Layer_1">
        <polygon class="cls-1" points="150.96 216.55 110.35 216.55 110.35 196.24 110.35 175.94 49.43 175.94 49.43 155.63 69.74 155.63 69.74 94.72 90.04 94.72 90.04 74.41 110.35 74.41 110.35 54.11 150.96 54.11 150.96 74.41 171.26 74.41 171.26 94.72 191.57 94.72 191.57 155.63 211.87 155.63 211.87 175.94 150.96 175.94 150.96 216.55"/>
        <path class="cls-2" d="M252.49,175.94v-20.31h-20.31v-60.91h-20.3v-20.31h-20.31v-20.3h-20.3v-20.31h-81.23v20.3h-20.31v20.31h-20.3v20.3h0v40.61h-20.31v40.62H8.82v20.31h40.61v20.3h40.61v20.3h40.61v20.31h40.62v-20.3h20.3v-20.31h60.92v-20.3h20.3v-20.31h-20.3,0ZM69.74,155.63v-20.3h0v-40.61h20.3v-20.31h20.31v-20.3h40.61v20.31h20.3v20.3h20.31v20.3h0v40.62h20.3v20.3H69.73s-20.29,0-20.29,0h0v-20.31h20.31ZM110.35,216.54v-20.29h40.61v20.3h-40.61s0-.01,0-.01Z"/>
      </g>
    </g>
  </g>
</svg>