<?xml version="1.0" encoding="UTF-8"?>
<svg xmlns="http://www.w3.org/2000/svg" version="1.1" viewBox="0 0 283.46 283.46">
  <defs>
    <style>
      .cls-1 {
        fill: #fff;
      }

      .cls-2 {
        fill: #08021c;
      }
    </style>
  </defs>
  <!-- Generator: Adobe Illustrator 28.6.0, SVG Export Plug-In . SVG Version: 1.1.0 Build 552)  -->
  <g>
    <g id="Layer_1">
      <g>
        <path class="cls-2" d="M117.51,51.94h-20.64v-20.1h-41.95v20.1h-20.82v40.18h20.82v19.97h20.81v20h42.14v-19.97h20.64v-40.1h-21v-20.08ZM55.24,91.99v-40.05h41.13v40.05h-41.13Z"/>
        <rect class="cls-2" x="161.37" y="72.02" width="86.53" height="20.1"/>
        <rect class="cls-2" x="160.9" y="192.02" width="87" height="20.1"/>
        <path class="cls-2" d="M117.51,171.94h-20.64v-20.1h-41.95v20.1h-20.82v40.18h20.82v19.97h20.81v20h42.14v-19.97h20.64v-40.1h-21v-20.08ZM55.24,211.99v-40.05h41.13v40.05h-41.13Z"/>
      </g>
      <rect class="cls-1" x="55.24" y="51.94" width="41.13" height="40.05"/>
      <rect class="cls-1" x="55.24" y="171.94" width="41.13" height="40.05"/>
    </g>
  </g>
</svg>