<?xml version="1.0" encoding="UTF-8"?>
<svg xmlns="http://www.w3.org/2000/svg" version="1.1" viewBox="0 0 283.46 283.46">
  <defs>
    <style>
      .cls-1 {
        fill: #fff;
      }

      .cls-2 {
        fill: #08021c;
      }
    </style>
  </defs>
  <!-- Generator: Adobe Illustrator 28.6.0, SVG Export Plug-In . SVG Version: 1.1.0 Build 552)  -->
  <g>
    <g id="Layer_1">
      <path class="cls-1" d="M60.85,82.31l19.99-.38v-20.48h80.89v20.48l20.3-.2.31,81.18,19.99,20.56,40.92,40.34h-40.92l-40.6-40.34-80.89.31v-20.48h-20.62l.63-80.99h0Z"/>
      <path class="cls-2" d="M100.81,81.3"/>
      <g>
        <path class="cls-2" d="M243.55,203.63v-20.17h-20.62v-82h-19.98v-20.16h-20.62v-19.86h-19.67v-20.17h-82.15v20.17h-20.3v20.86h-19.98v81.61h19.98v19.86h19.68v20.17h41.22v20.17h60.91v20.17h20.3v20.48h61.53v-61.13h-20.3ZM182.02,163.29h-20.3v20.17h-80.89v-20.17h-19.98v-80.99h19.99-.01v-20.85h0l80.87.3v20.17h20.31v81.37ZM202.32,203.63h-19.98v-19.86h19.98v19.86ZM222.62,223.8h-19.99v-19.86h19.99v19.86Z"/>
        <path class="cls-2" d="M142.04,101.46v-19.85h-41.23v19.85h-19.98v40.96h19.67v21.18h41.23v-21.17h19.6s.48,0,.48,0v-40.96h-19.77Z"/>
      </g>
    </g>
  </g>
</svg>