<?xml version="1.0" encoding="UTF-8"?>
<svg id="Layer_1" data-name="Layer 1" xmlns="http://www.w3.org/2000/svg" version="1.1" viewBox="0 0 283.5 283.5">
  <defs>
    <style>
      .cls-1 {
        fill: #08021c;
      }

      .cls-1, .cls-2 {
        stroke-width: 0px;
      }

      .cls-2 {
        fill: #fff;
      }
    </style>
  </defs>
  <g id="Layer_1-2" data-name="Layer 1">
    <path class="cls-1" d="M222.9,238.7v-28.5h-14.5v-13.4h-14.3v-13.8h-26.2v-13.8h-16.5v-13.6h-14.4v-40.9h14.4v-13.7h42.6v-13.8h14.4v-13.8h13.7v-30.6h-13.7v-10.8h-14.3v-13.6h-43.1v13.6h-14.3l.2,55.2h-14.4v13.6h-57.2c0-.1,0,13.7,0,13.7h-14.3v41.4h14.3v13.6h14.5l.3,13.6h56.6v55.2h14.3v13.6h14.3v13.7h28.7v-13.3h14.4c0-.1,0-.1,0-.1v-13.3h14.5Z"/>
  </g>
  <rect class="cls-2" x="151.5" y="32.5" width="42.5" height="41.2"/>
  <rect class="cls-2" x="65.8" y="114.2" width="42.5" height="41.2"/>
  <rect class="cls-2" x="151.5" y="196.5" width="42.5" height="41.2"/>
</svg>